<?xml version="1.0" standalone="no"?>
<!DOCTYPE svg PUBLIC "-//W3C//DTD SVG 20010904//EN"
 "http://www.w3.org/TR/2001/REC-SVG-20010904/DTD/svg10.dtd">
<svg version="1.0" xmlns="http://www.w3.org/2000/svg"
 width="1000.000000pt" height="1000.000000pt" viewBox="0 0 1000.000000 1000.000000"
 preserveAspectRatio="xMidYMid meet">
<metadata>
Created by potrace 1.11, written by Peter Selinger 2001-2013
</metadata>
<g transform="translate(0.000000,1000.000000) scale(0.100000,-0.100000)"
fill="#000000" stroke="none">
<path d="M4967 7603 c-2 -1 -41 -5 -87 -8 -261 -19 -583 -100 -835 -212 -311
-137 -564 -311 -806 -552 -166 -167 -301 -341 -427 -552 -25 -42 -132 -255
-132 -264 0 -3 -9 -24 -19 -48 -66 -149 -145 -429 -167 -592 -3 -27 -8 -59
-10 -69 -24 -126 -23 -553 1 -691 7 -41 14 -83 20 -130 9 -60 63 -270 91 -355
53 -159 131 -333 214 -480 37 -64 174 -272 193 -292 7 -7 23 -26 36 -43 39
-51 122 -144 194 -216 255 -257 564 -462 892 -589 61 -24 119 -47 130 -51 18
-7 123 -39 150 -45 6 -1 37 -9 70 -18 81 -21 210 -44 335 -61 73 -10 459 -13
530 -5 36 4 92 11 124 15 33 4 69 9 80 11 12 2 37 7 56 10 223 39 513 141 740
261 307 161 584 388 809 663 236 288 411 624 501 963 71 265 94 441 95 702 0
232 -18 396 -69 620 -2 11 -7 34 -11 50 -13 57 -78 250 -113 335 -43 106 -139
299 -159 323 -9 9 -13 17 -10 17 10 0 -124 197 -204 300 -67 87 -258 286 -354
371 -78 68 -227 176 -340 246 -242 150 -595 289 -858 337 -138 25 -167 29
-311 43 -60 5 -345 11 -349 6z m408 -36 c92 -11 210 -29 215 -32 3 -2 23 -6
45 -9 37 -6 78 -16 238 -60 87 -24 279 -102 401 -163 640 -320 1120 -887 1333
-1571 31 -101 30 -98 38 -137 3 -16 10 -46 15 -65 21 -80 39 -204 56 -375 12
-123 4 -379 -15 -520 -18 -129 -19 -136 -41 -238 -66 -304 -190 -597 -366
-864 -243 -368 -540 -646 -918 -857 -238 -133 -582 -256 -811 -291 -22 -3 -67
-10 -100 -15 -150 -23 -445 -31 -586 -16 -207 22 -395 60 -587 121 -258 81
-544 233 -778 411 -226 173 -431 392 -593 637 -66 99 -192 332 -235 435 -60
143 -141 427 -161 567 -4 22 -8 47 -10 55 -2 8 -7 44 -10 80 -4 36 -8 83 -10
105 -5 54 -5 349 0 405 2 25 7 63 10 85 2 22 7 63 11 90 12 111 67 332 117
480 148 431 445 858 800 1150 27 22 54 45 60 50 67 61 278 194 427 269 154 79
422 185 447 177 2 0 20 6 41 13 37 13 250 60 322 71 19 3 71 8 115 11 44 3 82
8 84 10 5 5 396 -3 446 -9z"/>
<path d="M4978 7345 c-6 -6 -1 -183 7 -212 13 -55 86 -80 149 -52 42 20 50 54
47 212 -1 49 -4 57 -20 57 -17 0 -19 -9 -19 -106 0 -118 -12 -144 -63 -144
-53 0 -61 28 -68 223 -1 24 -18 36 -33 22z"/>
<path d="M5422 7313 c2 -9 14 -18 28 -20 46 -6 52 -11 46 -40 -4 -16 -9 -41
-12 -58 -2 -16 -7 -37 -9 -45 -2 -8 -7 -30 -10 -48 -3 -19 -7 -39 -8 -45 -1
-6 7 -13 19 -15 12 -2 21 3 21 10 1 13 3 25 23 122 5 28 12 62 14 76 2 14 8
24 12 24 5 -1 23 -5 41 -8 29 -7 54 7 39 21 -7 7 -162 42 -189 42 -12 1 -17
-5 -15 -16z"/>
<path d="M4671 7311 c-11 -7 -10 -23 4 -92 10 -46 21 -92 26 -101 6 -10 8 -18
6 -18 -3 0 -44 41 -93 90 -48 50 -93 90 -100 90 -22 0 -26 -19 -15 -68 15 -63
20 -88 30 -145 9 -53 25 -77 41 -61 6 6 1 46 -14 113 l-23 103 91 -95 c65 -67
96 -93 109 -90 15 4 17 11 12 31 -3 14 -16 71 -27 126 -23 116 -28 128 -47
117z"/>
<path d="M5817 7100 c-26 -66 -47 -124 -47 -129 0 -5 7 -11 15 -15 14 -5 30
20 50 83 5 17 12 20 28 15 37 -10 47 -33 41 -87 -5 -36 -3 -52 7 -58 17 -11
32 -12 25 -1 -2 4 -1 27 4 52 4 24 4 54 -1 67 -7 19 -5 23 11 23 21 0 48 34
55 68 6 31 -29 68 -82 86 -26 9 -50 16 -53 16 -4 0 -28 -54 -53 -120z m128 56
c44 -44 2 -100 -58 -77 -31 12 -32 16 -12 65 18 42 37 45 70 12z"/>
<path d="M6185 6929 c-53 -94 -65 -123 -56 -132 15 -15 24 -4 98 126 49 87 61
127 35 127 -4 0 -39 -54 -77 -121z"/>
<path d="M3915 7012 c-29 -5 -102 -42 -119 -61 -13 -14 -6 -29 52 -128 76
-127 81 -129 154 -71 50 39 69 76 64 127 -8 82 -79 146 -151 133z m47 -43 c33
-15 59 -55 65 -98 4 -30 0 -43 -22 -69 -53 -63 -58 -62 -120 38 -30 50 -53 95
-50 101 8 12 64 37 87 38 9 1 27 -4 40 -10z"/>
<path d="M6434 6919 c-4 -7 7 -24 26 -40 l32 -28 -49 -63 c-26 -34 -55 -70
-63 -79 -37 -43 -39 -46 -27 -58 6 -6 14 -11 17 -11 4 0 40 42 80 94 l73 95
34 -27 c27 -20 36 -23 43 -13 8 14 -12 35 -95 97 -56 43 -63 46 -71 33z"/>
<path d="M4940 6848 c-41 -4 -104 -13 -140 -19 -36 -6 -74 -13 -84 -15 -58
-10 -192 -50 -276 -81 -370 -138 -682 -386 -905 -718 -215 -321 -324 -683
-319 -1066 1 -144 17 -299 39 -379 1 -3 5 -21 9 -40 72 -332 284 -702 535
-935 30 -27 63 -58 73 -68 94 -90 375 -263 510 -313 210 -78 323 -107 499
-130 88 -12 379 -11 461 1 226 34 395 84 578 172 422 203 752 548 929 973 35
83 84 233 97 295 2 11 6 31 9 45 22 96 37 235 38 350 1 127 -8 304 -18 332 -2
7 -6 29 -9 48 -3 19 -10 50 -15 68 -5 18 -10 35 -10 37 1 16 -16 79 -38 145
-44 134 -89 231 -187 405 -78 137 -291 381 -415 474 -20 14 -42 32 -50 40 -38
35 -223 148 -323 196 -300 144 -672 213 -988 183z m400 -32 c153 -26 246 -48
363 -87 597 -199 1067 -711 1212 -1319 45 -188 54 -271 50 -475 -3 -206 -4
-216 -42 -384 -110 -502 -448 -959 -894 -1209 -104 -58 -132 -72 -214 -104
-88 -35 -232 -83 -277 -92 -193 -39 -271 -48 -424 -48 -101 0 -227 8 -279 18
-10 2 -37 6 -59 10 -70 10 -226 54 -325 91 -173 64 -320 145 -469 258 -337
254 -577 613 -682 1017 -16 62 -31 131 -34 153 -3 22 -10 69 -15 105 -10 69
-7 411 4 470 69 372 181 635 379 890 48 62 217 237 281 290 180 151 424 281
651 349 99 29 251 60 332 67 37 4 69 8 71 10 5 5 336 -4 371 -10z"/>
<path d="M5105 6774 c-5 -1 -55 -5 -110 -8 -98 -5 -158 -11 -201 -21 -12 -2
-38 -7 -59 -11 -41 -6 -200 -52 -275 -79 -81 -29 -264 -123 -346 -177 -377
-251 -650 -630 -758 -1053 -14 -55 -28 -117 -32 -139 -3 -21 -8 -48 -10 -60
-16 -81 -22 -319 -11 -426 15 -132 19 -157 42 -255 40 -170 113 -356 192 -487
74 -124 87 -143 93 -148 3 -3 13 -15 21 -27 44 -64 188 -217 280 -299 226
-198 586 -365 879 -408 138 -20 373 -26 490 -13 435 50 815 239 1118 556 40
42 98 109 128 149 54 71 194 297 194 314 0 4 14 37 30 72 43 90 104 300 117
396 2 19 6 41 9 49 6 19 18 195 18 266 -1 69 -14 256 -19 264 -1 3 -6 26 -9
51 -3 25 -10 60 -15 78 -5 18 -10 36 -11 40 -4 26 -16 68 -42 147 -143 433
-477 820 -893 1032 -148 76 -388 154 -520 169 -27 4 -53 8 -57 10 -3 2 -53 7
-110 10 -56 3 -107 7 -113 8 -5 2 -14 2 -20 0z m245 -43 c253 -37 526 -139
726 -272 431 -288 702 -704 790 -1209 19 -110 26 -381 13 -490 -23 -188 -85
-402 -165 -567 -277 -569 -830 -953 -1454 -1008 -68 -6 -251 -6 -305 0 -151
16 -145 15 -250 39 -651 150 -1165 654 -1329 1304 -14 54 -28 116 -31 137 -3
22 -8 65 -12 95 -10 71 -10 337 0 415 64 518 349 981 782 1271 229 153 510
256 785 289 30 4 56 8 57 9 8 8 322 -3 393 -13z"/>
<path d="M5028 6696 c-1 -2 -37 -6 -78 -10 -123 -10 -157 -16 -275 -46 -497
-125 -925 -479 -1137 -940 -56 -121 -54 -116 -86 -220 -60 -193 -82 -356 -77
-572 1 -81 5 -150 8 -155 2 -4 7 -30 11 -58 5 -43 13 -82 41 -203 15 -63 81
-225 134 -329 162 -315 423 -575 742 -740 62 -32 144 -70 169 -78 3 -1 12 -4
20 -8 73 -29 222 -67 370 -92 83 -15 367 -15 470 0 730 105 1315 651 1462
1365 42 203 45 455 9 660 -37 210 -124 432 -244 622 -275 435 -755 737 -1265
793 -57 7 -269 15 -274 11z"/>
<path d="M3505 6720 c-8 -12 161 -210 179 -210 6 1 34 23 63 49 37 35 49 51
41 59 -8 8 -24 0 -56 -26 l-44 -36 -37 40 c-20 22 -55 61 -79 87 -43 48 -56
55 -67 37z"/>
<path d="M6687 6547 c-96 -91 -109 -110 -84 -120 10 -4 147 121 202 184 3 3 0
11 -8 17 -10 8 -35 -10 -110 -81z"/>
<path d="M3340 6546 c-14 -18 -19 -12 85 -101 39 -33 79 -68 89 -77 14 -13 23
-15 32 -7 18 15 9 29 -44 71 -26 21 -61 50 -78 65 -75 68 -70 65 -84 49z"/>
<path d="M6850 6402 c-17 -8 -44 -30 -60 -49 -69 -78 -11 -203 94 -203 63 0
143 64 152 122 17 103 -89 177 -186 130z m129 -46 c41 -44 24 -110 -38 -144
-127 -71 -210 62 -89 141 53 34 97 35 127 3z"/>
<path d="M3161 6316 c-10 -11 -2 -20 38 -46 l49 -32 -31 -52 c-17 -28 -32 -53
-33 -55 -2 -2 -26 11 -53 28 -45 27 -51 29 -60 14 -7 -14 11 -29 106 -90 63
-40 119 -71 124 -68 20 13 7 35 -38 61 -27 15 -49 28 -51 29 -7 6 61 105 71
105 7 0 32 -13 56 -30 35 -23 48 -27 59 -18 11 10 8 17 -20 40 -18 15 -36 28
-40 28 -4 0 -33 17 -65 38 -90 60 -99 64 -112 48z"/>
<path d="M7155 5979 c-27 -11 -59 -24 -70 -28 -11 -5 -41 -17 -67 -28 -44 -16
-60 -35 -40 -46 4 -3 50 12 102 33 52 21 97 36 99 34 1 -1 -6 -12 -17 -24 -52
-56 -132 -179 -126 -194 3 -9 7 -16 8 -16 10 0 240 92 249 100 4 4 5 14 2 22
-5 14 -20 10 -97 -23 -50 -21 -93 -37 -95 -35 -2 2 7 16 20 32 63 78 117 163
111 178 -8 20 -17 20 -79 -5z"/>
<path d="M2946 5907 c-57 -87 -31 -184 61 -223 88 -38 170 9 193 112 7 30 -1
44 -25 44 -1 0 -5 -18 -9 -39 -8 -52 -54 -93 -99 -88 -101 11 -141 76 -100
162 12 25 14 38 6 46 -8 8 -16 4 -27 -14z"/>
<path d="M2733 5136 c-47 -54 -83 -106 -83 -119 0 -31 28 -24 56 14 16 21 31
39 34 39 3 0 5 -62 5 -137 -1 -76 1 -144 3 -150 2 -7 12 -13 22 -13 18 0 19
12 17 192 -2 170 -4 191 -19 194 -9 1 -25 -8 -35 -20z"/>
<path d="M2915 5148 c-47 -27 -72 -95 -50 -138 29 -57 85 -81 139 -60 26 9 27
9 20 -12 -8 -28 -26 -50 -80 -103 -39 -38 -48 -65 -20 -65 21 0 113 94 137
141 32 63 35 148 6 191 -37 54 -103 74 -152 46z m102 -51 c7 -7 17 -27 22 -45
8 -28 7 -34 -12 -47 -45 -28 -74 -29 -101 -1 -33 32 -33 60 -1 92 26 26 66 27
92 1z"/>
<path d="M7168 5143 c-15 -10 -33 -30 -39 -45 -13 -33 -6 -98 13 -109 9 -6 7
-17 -10 -47 -12 -22 -22 -52 -22 -67 0 -38 29 -82 64 -97 113 -46 207 72 136
172 -16 23 -17 29 -5 41 25 25 27 80 5 117 -32 52 -91 66 -142 35z m99 -46
c21 -20 20 -63 -2 -87 -35 -39 -93 -18 -99 35 -7 59 60 93 101 52z m10 -175
c33 -44 -1 -112 -56 -112 -33 0 -71 39 -66 68 2 9 4 22 4 29 1 19 53 43 80 37
14 -3 31 -13 38 -22z"/>
<path d="M7423 5144 c-26 -13 -33 -23 -33 -47 0 -28 1 -29 18 -15 37 33 61 40
97 28 23 -8 37 -20 44 -40 18 -53 -8 -111 -98 -217 -34 -40 -61 -75 -61 -78 0
-3 55 -5 123 -5 116 0 123 1 124 20 2 18 -5 20 -70 21 -40 1 -75 1 -79 0 -5 0
-8 3 -8 8 0 5 3 11 8 13 12 5 60 73 87 124 43 81 26 162 -40 190 -44 18 -72
17 -112 -2z"/>
<path d="M3143 4179 c-16 -16 -5 -39 17 -39 23 0 32 13 24 34 -7 19 -25 21
-41 5z"/>
<path d="M7010 4135 c0 -8 21 -25 46 -36 38 -18 45 -25 39 -43 -16 -50 -17
-68 -5 -95 13 -32 55 -55 91 -49 27 4 75 63 83 103 l7 31 -118 52 c-127 56
-143 60 -143 37z m174 -95 c51 -21 51 -22 35 -53 -22 -41 -65 -50 -90 -19 -16
19 -17 35 -5 70 9 27 4 26 60 2z"/>
<path d="M3286 3895 c-3 -10 4 -30 19 -49 14 -19 25 -46 25 -64 0 -61 -82
-122 -144 -106 -31 7 -76 58 -76 85 0 21 -8 23 -28 10 -11 -7 -10 -16 6 -47
33 -65 85 -95 147 -87 129 18 174 168 77 256 -18 16 -20 16 -26 2z"/>
<path d="M6836 3794 c-4 -10 -3 -20 2 -23 4 -3 25 -16 45 -29 20 -13 37 -27
37 -32 0 -5 -12 -18 -26 -29 -25 -20 -26 -20 -74 -2 -46 17 -70 14 -70 -10 0
-10 88 -39 117 -39 18 0 23 -6 23 -24 0 -27 42 -66 71 -66 31 0 109 81 109
114 0 6 -194 144 -213 152 -8 3 -17 -3 -21 -12z m157 -126 c18 -13 33 -24 35
-25 9 -4 -32 -53 -49 -58 -21 -7 -54 8 -62 28 -6 17 19 77 33 77 6 0 25 -10
43 -22z"/>
<path d="M3482 3427 c-70 -71 -91 -97 -86 -111 6 -15 20 -4 87 61 44 43 77 69
73 59 -6 -17 -21 -80 -31 -127 -2 -9 -8 -33 -14 -53 -11 -40 -7 -62 12 -69 7
-3 56 39 110 92 82 81 96 99 84 109 -12 10 -28 -1 -91 -64 -42 -42 -76 -74
-76 -72 0 3 13 59 29 124 21 85 27 122 19 131 -6 7 -13 13 -17 13 -3 0 -48
-42 -99 -93z"/>
<path d="M6570 3459 c-36 -15 -69 -56 -76 -97 -9 -46 26 -114 75 -148 111 -75
240 42 179 163 -34 68 -119 107 -178 82z m111 -66 c52 -49 62 -97 28 -137 -30
-34 -75 -37 -118 -7 -62 44 -78 115 -36 156 36 37 77 33 126 -12z"/>
<path d="M3813 3138 c-56 -79 -78 -117 -71 -125 16 -20 30 -6 107 104 63 90
71 107 59 119 -12 12 -25 -1 -95 -98z"/>
<path d="M6143 3130 c-40 -9 -103 -56 -103 -75 0 -8 14 -37 31 -65 l31 -50 39
22 c52 29 43 56 -11 34 -17 -7 -55 47 -45 64 14 23 68 42 101 36 33 -7 83 -54
85 -82 5 -58 0 -75 -32 -105 -17 -16 -40 -29 -50 -29 -19 0 -37 -25 -26 -36
10 -11 74 16 104 44 106 94 14 274 -124 242z"/>
<path d="M4391 2983 c-36 -43 -38 -53 -12 -53 19 0 75 73 64 84 -12 12 -22 6
-52 -31z"/>
<path d="M5773 2964 c-8 -4 -6 -20 7 -60 l19 -55 -23 -10 c-32 -15 -59 1 -87
51 -24 43 -27 44 -48 31 -11 -7 -10 -14 8 -39 11 -17 21 -34 21 -39 0 -5 11
-16 25 -23 22 -12 23 -15 10 -34 -36 -50 -2 -110 61 -110 50 1 115 29 109 46
-2 7 -20 66 -40 131 -20 64 -39 117 -43 116 -4 0 -12 -3 -19 -5z m47 -193 c7
-21 9 -44 6 -50 -9 -15 -69 -14 -84 1 -19 19 -14 55 10 72 36 26 54 20 68 -23z"/>
<path d="M4635 2888 c-4 -14 -10 -64 -21 -190 -7 -78 -6 -78 18 -78 18 0 30
10 45 38 12 20 31 55 44 77 12 22 28 51 36 65 l13 25 1 -25 c0 -14 2 -34 5
-45 2 -11 6 -33 8 -50 16 -106 19 -115 46 -115 16 0 29 19 36 55 1 6 11 50 23
98 26 109 26 117 1 117 -11 0 -19 -3 -18 -7 1 -5 -4 -33 -10 -64 -18 -80 -24
-112 -25 -126 0 -7 -3 -11 -6 -8 -5 6 -7 16 -15 80 -5 39 -10 62 -22 118 -9
43 -31 30 -71 -43 -19 -36 -44 -81 -54 -100 l-20 -35 5 50 c3 28 8 78 12 113
5 53 4 62 -10 62 -9 0 -19 -6 -21 -12z"/>
<path d="M5353 2862 c-6 -4 -14 -24 -18 -45 -4 -20 -10 -37 -14 -38 -3 0 -25
-2 -49 -5 -43 -6 -43 -6 -59 35 -12 31 -21 41 -38 41 -22 0 -21 -4 26 -116 64
-150 66 -154 89 -154 20 0 23 7 60 150 12 47 26 97 30 113 9 28 -1 35 -27 19z
m-51 -178 c-8 -30 -16 -53 -18 -52 -1 2 -12 26 -23 55 l-20 52 27 3 c47 6 50
1 34 -58z"/>
<path d="M8258 6940 c-113 -20 -227 -174 -272 -365 -26 -115 -28 -125 -31
-237 -6 -200 34 -317 151 -447 37 -41 79 -100 93 -130 24 -53 26 -67 31 -266
9 -356 -1 -1304 -15 -1490 -2 -27 -6 -90 -10 -140 -3 -49 -8 -108 -11 -130
-18 -165 -28 -309 -28 -385 0 -79 20 -119 77 -150 71 -40 158 -18 211 54 23
30 28 119 14 226 -4 30 -10 84 -13 120 -6 66 -12 118 -20 200 -4 44 -11 129
-20 245 -2 33 -7 123 -10 200 -3 77 -8 185 -10 240 -16 381 -22 1032 -11 1154
9 103 34 153 121 242 87 89 120 153 140 266 13 72 13 235 1 293 -3 14 -11 50
-17 80 -18 90 -60 201 -97 260 -79 125 -171 178 -274 160z"/>
<path d="M1938 6889 c-5 -31 -3 -100 6 -319 18 -403 18 -482 0 -522 -9 -21
-20 -38 -24 -38 -12 0 -42 70 -45 104 -2 17 -6 94 -9 171 -4 77 -8 178 -11
225 -2 47 -7 137 -10 200 -3 63 -7 124 -10 135 -2 11 -4 30 -4 43 -1 18 -6 23
-23 20 -33 -5 -37 -45 -31 -293 13 -554 9 -641 -36 -633 -28 6 -30 32 -46 628
-6 233 -11 267 -36 280 -16 9 -19 7 -20 -12 0 -13 -2 -32 -4 -43 -2 -11 -7
-132 -10 -270 -4 -137 -8 -297 -10 -355 -9 -232 -8 -327 5 -366 18 -53 54
-101 114 -150 58 -46 91 -91 105 -142 6 -21 8 -168 6 -366 -3 -182 -7 -644
-10 -1026 -5 -743 -4 -751 45 -883 23 -61 61 -97 103 -97 41 0 90 41 109 92
14 39 31 131 31 173 -1 41 -15 422 -18 470 -4 57 -10 173 -20 390 -5 95 -9
176 -20 365 -5 93 -13 259 -20 385 -2 44 -7 134 -12 200 -4 66 -7 174 -8 240
0 136 3 146 84 243 72 87 93 133 94 211 0 70 -12 363 -18 421 -2 19 -6 82 -10
140 -16 273 -25 352 -41 377 -20 32 -44 19 -46 -26 -2 -56 8 -340 17 -431 12
-138 15 -352 6 -388 -23 -85 -56 -29 -66 113 -3 44 -8 100 -10 125 -4 48 -15
208 -20 300 -15 269 -26 340 -55 340 -12 0 -19 -10 -22 -31z"/>
</g>
</svg>
